<?xml version="1.0" encoding="UTF-8" standalone="no"?>
<svg
   role="img"
   viewBox="0 0 48 28"
   width="48"
   height="28"
   aria-labelledby="pi-american_express"
   version="1.1"
   id="svg3"
   sodipodi:docname="cardMasterCard5.svg"
   inkscape:version="1.3.2 (091e20e, 2023-11-25, custom)"
   xml:space="preserve"
   xmlns:inkscape="http://www.inkscape.org/namespaces/inkscape"
   xmlns:sodipodi="http://sodipodi.sourceforge.net/DTD/sodipodi-0.dtd"
   xmlns="http://www.w3.org/2000/svg"
   xmlns:svg="http://www.w3.org/2000/svg"
   xmlns:rdf="http://www.w3.org/1999/02/22-rdf-syntax-ns#"
   xmlns:cc="http://creativecommons.org/ns#"
   xmlns:dc="http://purl.org/dc/elements/1.1/"><defs
     id="defs3" /><sodipodi:namedview
     id="namedview3"
     pagecolor="#505050"
     bordercolor="#eeeeee"
     borderopacity="1"
     inkscape:showpageshadow="0"
     inkscape:pageopacity="0"
     inkscape:pagecheckerboard="0"
     inkscape:deskcolor="#505050"
     inkscape:zoom="16.395833"
     inkscape:cx="35.374841"
     inkscape:cy="14.485388"
     inkscape:window-width="1920"
     inkscape:window-height="1001"
     inkscape:window-x="-9"
     inkscape:window-y="-9"
     inkscape:window-maximized="1"
     inkscape:current-layer="svg3" /><title
     id="pi-american_express">American Express</title><metadata
     id="metadata3"><rdf:RDF><cc:Work
         rdf:about=""><dc:title>American Express</dc:title></cc:Work></rdf:RDF></metadata><g
     fill="none"
     id="g3"
     transform="scale(1.2631579,1.1666667)"><path
       fill="#000000"
       d="M 35,0 H 3 C 1.3,0 0,1.3 0,3 v 18 c 0,1.7 1.4,3 3,3 h 32 c 1.7,0 3,-1.3 3,-3 V 3 C 38,1.3 36.6,0 35,0 Z"
       opacity="0.07"
       id="path1"
       style="opacity:0.08" /></g><g
     id="g5"
     transform="translate(4.8475221,2.7293519)"><path
       fill="#ffffff"
       d="m 39.596922,-1.7293519 c 1.405556,0 2.555556,1.06363637 2.555556,2.36363638 V 21.907011 c 0,1.3 -1.15,2.363637 -2.555556,2.363637 H -1.2919666 c -1.4055555,0 -2.5555555,-1.063637 -2.5555555,-2.363637 V 0.63428448 c 0,-1.30000001 1.15,-2.36363638 2.5555555,-2.36363638 H 39.596922"
       id="path2"
       style="stroke-width:1.22886" /><ellipse
       fill="#eb001b"
       cx="14.041368"
       cy="11.270648"
       id="circle2"
       rx="8.9444447"
       ry="8.272728"
       style="stroke-width:1.22886" /><ellipse
       fill="#f79e1b"
       cx="24.263588"
       cy="11.270648"
       id="circle3"
       rx="8.9444447"
       ry="8.272728"
       style="stroke-width:1.22886" /><path
       fill="#ff5f00"
       d="m 22.985811,11.270648 c 0,-2.8363634 -1.533333,-5.3181817 -3.833333,-6.7363635 -2.3,1.5363636 -3.833333,4.0181823 -3.833333,6.7363635 0,2.718182 1.533333,5.318182 3.833333,6.736363 2.3,-1.418181 3.833333,-3.9 3.833333,-6.736363 z"
       id="path3"
       style="stroke-width:1.22886" /></g></svg>
