<?xml version="1.0" encoding="UTF-8" standalone="no"?>
<svg
   role="img"
   viewBox="0 0 48 28"
   width="48"
   height="28"
   aria-labelledby="pi-american_express"
   version="1.1"
   id="svg3"
   sodipodi:docname="cardPaypalBlack3.svg"
   inkscape:version="1.3.2 (091e20e, 2023-11-25, custom)"
   xml:space="preserve"
   xmlns:inkscape="http://www.inkscape.org/namespaces/inkscape"
   xmlns:sodipodi="http://sodipodi.sourceforge.net/DTD/sodipodi-0.dtd"
   xmlns="http://www.w3.org/2000/svg"
   xmlns:svg="http://www.w3.org/2000/svg"
   xmlns:rdf="http://www.w3.org/1999/02/22-rdf-syntax-ns#"
   xmlns:cc="http://creativecommons.org/ns#"
   xmlns:dc="http://purl.org/dc/elements/1.1/"><defs
     id="defs3" /><sodipodi:namedview
     id="namedview3"
     pagecolor="#505050"
     bordercolor="#eeeeee"
     borderopacity="1"
     inkscape:showpageshadow="0"
     inkscape:pageopacity="0"
     inkscape:pagecheckerboard="0"
     inkscape:deskcolor="#505050"
     inkscape:zoom="11.313708"
     inkscape:cx="32.70369"
     inkscape:cy="21.080622"
     inkscape:window-width="1920"
     inkscape:window-height="1001"
     inkscape:window-x="-9"
     inkscape:window-y="-9"
     inkscape:window-maximized="1"
     inkscape:current-layer="svg3"
     showgrid="false" /><title
     id="pi-american_express">American Express</title><metadata
     id="metadata3"><rdf:RDF><cc:Work
         rdf:about=""><dc:title>American Express</dc:title></cc:Work></rdf:RDF></metadata><g
     id="g5"
     transform="translate(4.8475221,2.7293519)" /><g
     id="g6"
     transform="translate(13.874206,5.6264295)" /><g
     id="g2"
     transform="scale(1.2631579,1.1666667)"><path
       opacity="0.07"
       d="M 35,0 H 3 C 1.3,0 0,1.3 0,3 v 18 c 0,1.7 1.4,3 3,3 h 32 c 1.7,0 3,-1.3 3,-3 V 3 C 38,1.3 36.6,0 35,0 Z"
       id="path1-2" /><path
       fill="#ffffff"
       d="m 35.185185,0.85714283 c 1.112732,0 2.023148,0.91168827 2.023148,2.02597397 V 21.116883 c 0,1.114285 -0.910416,2.025973 -2.023148,2.025973 H 2.8148148 c -1.1127314,0 -2.02314814,-0.911688 -2.02314814,-2.025973 V 2.8831168 c 0,-1.1142857 0.91041674,-2.02597397 2.02314814,-2.02597397 H 35.185185"
       id="path2"
       style="stroke-width:1.01228;fill:#000000;fill-opacity:1" /><path
       fill="#003087"
       d="M 23.9,8.3 C 24.1,7.3 23.9,6.6 23.3,6 22.7,5.3 21.6,5 20.2,5 H 16.1 C 15.8,5 15.6,5.2 15.5,5.5 L 14,15.6 c 0,0.2 0.1,0.4 0.3,0.4 H 17 l 0.4,-3.4 1.8,-2.2 z"
       id="path3" /><path
       fill="#3086c8"
       d="m 23.9,8.3 -0.2,0.2 c -0.5,2.8 -2.2,3.8 -4.6,3.8 H 18 c -0.3,0 -0.5,0.2 -0.6,0.5 l -0.6,3.9 -0.2,1 c 0,0.2 0.1,0.4 0.3,0.4 H 19 c 0.3,0 0.5,-0.2 0.5,-0.4 v -0.1 l 0.4,-2.4 v -0.1 c 0,-0.2 0.3,-0.4 0.5,-0.4 h 0.3 c 2.1,0 3.7,-0.8 4.1,-3.2 C 25,10.5 24.9,9.7 24.4,9.1 24.3,8.6 24.1,8.4 23.9,8.3 Z"
       id="path4" /><path
       fill="#012169"
       d="M 23.3,8.1 C 23.2,8 23.1,8 23,8 22.9,8 22.8,8 22.7,7.9 22.4,7.8 22,7.8 21.6,7.8 h -3 c -0.1,0 -0.2,0 -0.2,0.1 -0.2,0.1 -0.3,0.2 -0.3,0.4 l -0.7,4.4 v 0.1 c 0,-0.3 0.3,-0.5 0.6,-0.5 h 1.3 c 2.5,0 4.1,-1 4.6,-3.8 V 8.3 C 23.8,8.2 23.6,8.1 23.4,8.1 Z"
       id="path5" /></g></svg>
