<?xml version="1.0" encoding="UTF-8" standalone="no"?>
<svg
   role="img"
   viewBox="0 0 48 28"
   width="48"
   height="28"
   aria-labelledby="pi-american_express"
   version="1.1"
   id="svg3"
   sodipodi:docname="cardDiscover2.svg"
   inkscape:version="1.3.2 (091e20e, 2023-11-25, custom)"
   xml:space="preserve"
   xmlns:inkscape="http://www.inkscape.org/namespaces/inkscape"
   xmlns:sodipodi="http://sodipodi.sourceforge.net/DTD/sodipodi-0.dtd"
   xmlns="http://www.w3.org/2000/svg"
   xmlns:svg="http://www.w3.org/2000/svg"
   xmlns:rdf="http://www.w3.org/1999/02/22-rdf-syntax-ns#"
   xmlns:cc="http://creativecommons.org/ns#"
   xmlns:dc="http://purl.org/dc/elements/1.1/"><defs
     id="defs3"><linearGradient
       id="pi-paint0_linear"
       x1="21.657"
       y1="12.275"
       x2="19.632"
       y2="9.104"
       gradientUnits="userSpaceOnUse"><stop
         stop-color="#F89F20"
         id="stop8" /><stop
         offset=".25"
         stop-color="#F79A20"
         id="stop9" /><stop
         offset=".533"
         stop-color="#F68D20"
         id="stop10" /><stop
         offset=".62"
         stop-color="#F58720"
         id="stop11" /><stop
         offset=".723"
         stop-color="#F48120"
         id="stop12" /><stop
         offset="1"
         stop-color="#F37521"
         id="stop13" /></linearGradient><linearGradient
       id="pi-paint1_linear"
       x1="21.338"
       y1="12.232"
       x2="18.378"
       y2="6.446"
       gradientUnits="userSpaceOnUse"><stop
         stop-color="#F58720"
         id="stop14" /><stop
         offset=".359"
         stop-color="#E16F27"
         id="stop15" /><stop
         offset=".703"
         stop-color="#D4602C"
         id="stop16" /><stop
         offset=".982"
         stop-color="#D05B2E"
         id="stop17" /></linearGradient></defs><sodipodi:namedview
     id="namedview3"
     pagecolor="#505050"
     bordercolor="#eeeeee"
     borderopacity="1"
     inkscape:showpageshadow="0"
     inkscape:pageopacity="0"
     inkscape:pagecheckerboard="0"
     inkscape:deskcolor="#505050"
     inkscape:zoom="16"
     inkscape:cx="19.125"
     inkscape:cy="18.96875"
     inkscape:window-width="1920"
     inkscape:window-height="1001"
     inkscape:window-x="-9"
     inkscape:window-y="-9"
     inkscape:window-maximized="1"
     inkscape:current-layer="svg3" /><title
     id="pi-american_express">American Express</title><metadata
     id="metadata3"><rdf:RDF><cc:Work
         rdf:about=""><dc:title>American Express</dc:title></cc:Work></rdf:RDF></metadata><g
     fill="none"
     id="g3"
     transform="scale(1.2631579,1.1666667)"><path
       fill="#000000"
       d="M 35,0 H 3 C 1.3,0 0,1.3 0,3 v 18 c 0,1.7 1.4,3 3,3 h 32 c 1.7,0 3,-1.3 3,-3 V 3 C 38,1.3 36.6,0 35,0 Z"
       opacity="0.07"
       id="path1"
       style="opacity:0.08" /></g><g
     id="g5"
     transform="translate(4.8475221,2.7293519)" /><g
     id="g6"
     transform="translate(13.874206,5.6264295)" /><g
     style="fill:none"
     id="g7"
     transform="translate(8.8749999,9.8124999)"><path
       d="m 35.541706,-8.8124999 c 1.404658,0 2.553924,1.0636364 2.553924,2.3636364 V 14.823864 c 0,1.3 -1.149266,2.363636 -2.553924,2.363636 H -5.321076 c -1.4046581,0 -2.5539239,-1.063636 -2.5539239,-2.363636 V -6.4488635 c 0,-1.3 1.1492658,-2.3636364 2.5539239,-2.3636364 z"
       fill="#ffffff"
       id="path2"
       style="stroke-width:1.22847" /><path
       d="M -4.5932077,-1.5324999 H -6.598038 v 6.5000001 h 2.0048303 c 1.0598784,0 1.8260556,-0.2363637 2.5028454,-0.7445455 0.804486,-0.6145455 1.27696195,-1.5363636 1.27696195,-2.4936364 -0.0127696,-1.92636362 -1.55789355,-3.2618182 -3.77980735,-3.2618182 z m 1.608972,4.8927273 c -0.434167,0.3545455 -0.9832606,0.52 -1.877134,0.52 h -0.370319 v -4.30181817 h 0.370319 c 0.8811037,0 1.4174277,0.14181818 1.877134,0.52 0.472476,0.39 0.7534076,0.99272727 0.7534076,1.61909087 0,0.6263637 -0.2809316,1.2527273 -0.7534076,1.6427273 z m 2.79654671,-4.8927273 H 1.1786603 V 4.9675002 H -0.18768899 Z M 4.5243006,0.96113651 C 3.7070449,0.67750014 3.4644222,0.48840923 3.4644222,0.14568196 c 0,-0.41363637 0.434167,-0.7209091 1.0215695,-0.7209091 0.4086278,0 0.7534076,0.15363637 1.0981873,0.53181819 L 6.2992777,-0.90613623 C 5.7118752,-1.3788635 5.0095461,-1.6270453 4.2305993,-1.6270453 c -1.2386531,0 -2.1963745,0.80363635 -2.1963745,1.86727271 0,0.89818179 0.4469367,1.35909089 1.7238986,1.78454549 0.536324,0.1772727 0.804486,0.2954545 0.9449519,0.3663636 0.268162,0.1654546 0.4086278,0.4018182 0.4086278,0.6736364 0,0.5318182 -0.4469367,0.9218182 -1.0598784,0.9218182 -0.6512506,0 -1.174805,-0.3072728 -1.4940455,-0.8627273 L 1.6766754,3.915682 c 0.6257114,0.8627273 1.3918886,1.2409091 2.4262277,1.2409091 1.4174278,0 2.4262277,-0.8745455 2.4262277,-2.1390909 C 6.5546698,1.965682 6.0821942,1.4929547 4.5243006,0.96113651 Z M 6.9760675,1.7293183 c 0,1.9145455 1.6217417,3.3918182 3.7031895,3.3918182 0.587403,0 1.098187,-0.1063636 1.711129,-0.3781818 V 3.2538638 c -0.549093,0.5081818 -1.034339,0.7090909 -1.647281,0.7090909 -1.3791186,0 -2.3623793,-0.9218182 -2.3623793,-2.2454546 0,-1.25272723 1.0087999,-2.23363633 2.2985313,-2.23363633 0.651251,0 1.149266,0.21272728 1.711129,0.73272728 V -1.2724999 c -0.600172,-0.2836363 -1.098187,-0.4018181 -1.68559,-0.4018181 -2.0559083,0 -3.7287285,1.51272723 -3.7287285,3.4036363 z M 23.270102,2.8402274 21.392968,-1.5324999 h -1.494046 l 2.975322,6.6654546 h 0.740638 l 3.026399,-6.6654546 h -1.481276 z m 3.996891,2.1272728 h 3.881964 V 3.8684092 H 28.633342 V 2.1193183 H 31.05957 V 1.0202274 h -2.426228 v -1.44181817 h 2.515615 V -1.5324999 h -3.881964 z m 9.309052,-4.57363642 c 0,-1.21727273 -0.906643,-1.91454548 -2.490076,-1.91454548 H 32.0556 v 6.5 h 1.366349 V 2.3675002 h 0.178775 l 1.889904,2.6118181 h 1.685589 L 34.967073,2.2375001 c 1.034339,-0.200909 1.608972,-0.850909 1.608972,-1.84363632 z M 33.817807,1.4693183 h -0.395858 v -1.97363634 h 0.421398 c 0.855564,0 1.315271,0.33090909 1.315271,0.96909091 0,0.65000003 -0.459707,1.00454543 -1.340811,1.00454543 z"
       fill="#231f20"
       id="path3"
       style="stroke-width:1.22847" /><path
       d="m 20.16,12.86 a 2.931,2.931 0 1 0 0,-5.862 2.931,2.931 0 0 0 0,5.862 z"
       fill="url(#pi-paint0_linear)"
       id="path4" /><path
       opacity="0.65"
       d="m 20.16,12.86 a 2.931,2.931 0 1 0 0,-5.862 2.931,2.931 0 0 0 0,5.862 z"
       fill="url(#pi-paint1_linear)"
       id="path5" /><path
       d="m 36.57,7.506 c 0,-0.1 -0.07,-0.15 -0.18,-0.15 h -0.16 v 0.48 h 0.12 v -0.19 l 0.14,0.19 h 0.14 l -0.16,-0.2 c 0.06,-0.01 0.1,-0.06 0.1,-0.13 z m -0.2,0.07 h -0.02 v -0.13 h 0.02 c 0.06,0 0.09,0.02 0.09,0.06 0,0.05 -0.03,0.07 -0.09,0.07 z"
       fill="#231f20"
       id="path6" /><path
       d="m 36.41,7.176 c -0.23,0 -0.42,0.19 -0.42,0.42 0,0.23 0.19,0.42 0.42,0.42 0.23,0 0.42,-0.19 0.42,-0.42 0,-0.23 -0.19,-0.42 -0.42,-0.42 z m 0,0.77 c -0.18,0 -0.34,-0.15 -0.34,-0.35 0,-0.19 0.15,-0.35 0.34,-0.35 0.18,0 0.33,0.16 0.33,0.35 0,0.19 -0.15,0.35 -0.33,0.35 z"
       fill="#231f20"
       id="path7" /><path
       d="m 38.09563,5.3504093 c 0,0 -12.654693,8.1415457 -35.7855814,11.8370907 H 35.540429 a 2.5539239,2.3636364 0 0 0 2.553924,-2.344727 l 0.03065,-3.569091 -0.02937,-5.9220909 z"
       fill="#f48120"
       id="path8"
       style="stroke-width:1.22847" /></g></svg>
