<?xml version="1.0" encoding="UTF-8" standalone="no"?>
<svg
   role="img"
   viewBox="0 0 48 28"
   width="48"
   height="28"
   aria-labelledby="pi-american_express"
   version="1.1"
   id="svg3"
   sodipodi:docname="cardGpayBlack.svg"
   inkscape:version="1.3.2 (091e20e, 2023-11-25, custom)"
   xml:space="preserve"
   xmlns:inkscape="http://www.inkscape.org/namespaces/inkscape"
   xmlns:sodipodi="http://sodipodi.sourceforge.net/DTD/sodipodi-0.dtd"
   xmlns="http://www.w3.org/2000/svg"
   xmlns:svg="http://www.w3.org/2000/svg"
   xmlns:rdf="http://www.w3.org/1999/02/22-rdf-syntax-ns#"
   xmlns:cc="http://creativecommons.org/ns#"
   xmlns:dc="http://purl.org/dc/elements/1.1/"><defs
     id="defs3" /><sodipodi:namedview
     id="namedview3"
     pagecolor="#505050"
     bordercolor="#eeeeee"
     borderopacity="1"
     inkscape:showpageshadow="0"
     inkscape:pageopacity="0"
     inkscape:pagecheckerboard="0"
     inkscape:deskcolor="#505050"
     inkscape:zoom="5.656854"
     inkscape:cx="27.753942"
     inkscape:cy="19.180272"
     inkscape:window-width="1920"
     inkscape:window-height="1001"
     inkscape:window-x="-9"
     inkscape:window-y="-9"
     inkscape:window-maximized="1"
     inkscape:current-layer="svg3"
     showgrid="false" /><title
     id="pi-american_express">American Express</title><metadata
     id="metadata3"><rdf:RDF><cc:Work
         rdf:about=""><dc:title>American Express</dc:title></cc:Work></rdf:RDF></metadata><g
     id="g3"
     transform="scale(1.2631579,1.1666667)"><path
       d="M 35,0 H 3 C 1.3,0 0,1.3 0,3 v 18 c 0,1.7 1.4,3 3,3 h 32 c 1.7,0 3,-1.3 3,-3 V 3 C 38,1.3 36.6,0 35,0 Z"
       fill="#000000"
       opacity="0.07"
       id="path1" /><path
       d="m 35.185185,0.85714283 c 1.112732,0 2.023148,0.91168827 2.023148,2.02597397 V 21.116883 c 0,1.114285 -0.910416,2.025973 -2.023148,2.025973 H 2.8148148 c -1.1127314,0 -2.02314814,-0.911688 -2.02314814,-2.025973 V 2.8831168 c 0,-1.1142857 0.91041674,-2.02597397 2.02314814,-2.02597397 H 35.185185"
       fill="#ffffff"
       id="path2"
       style="stroke-width:1.01228;fill:#000000;fill-opacity:1"
       inkscape:label="path2" /><path
       d="m 18.093,11.976 v 3.2 h -1.018 v -7.9 h 2.691 a 2.447,2.447 0 0 1 1.747,0.692 2.28,2.28 0 0 1 0.11,3.224 l -0.11,0.116 c -0.47,0.447 -1.098,0.69 -1.747,0.674 z m 0,-3.732 v 2.788 h 1.698 c 0.377,0.012 0.741,-0.135 1.005,-0.404 A 1.391,1.391 0 0 0 19.791,8.274 Z m 6.484,1.348 c 0.65,-0.03 1.286,0.188 1.778,0.613 0.445,0.43 0.682,1.03 0.65,1.649 v 3.334 h -0.969 v -0.766 h -0.049 a 1.93,1.93 0 0 1 -1.673,0.931 2.17,2.17 0 0 1 -1.496,-0.533 1.667,1.667 0 0 1 -0.613,-1.324 1.606,1.606 0 0 1 0.613,-1.336 2.746,2.746 0 0 1 1.698,-0.515 c 0.517,-0.02 1.03,0.093 1.49,0.331 v -0.208 a 1.134,1.134 0 0 0 -0.417,-0.901 1.416,1.416 0 0 0 -0.98,-0.368 1.545,1.545 0 0 0 -1.319,0.717 l -0.895,-0.564 a 2.488,2.488 0 0 1 2.182,-1.06 z M 23.29,13.52 a 0.79,0.79 0 0 0 0.337,0.662 c 0.223,0.176 0.5,0.269 0.785,0.263 0.429,-10e-4 0.84,-0.17 1.146,-0.472 0.305,-0.286 0.478,-0.685 0.478,-1.103 a 2.047,2.047 0 0 0 -1.324,-0.374 1.716,1.716 0 0 0 -1.03,0.294 0.883,0.883 0 0 0 -0.392,0.73 z m 9.286,-3.75 -3.39,7.79 H 28.138 L 29.419,14.832 27.195,9.77 h 1.103 l 1.612,3.885 1.569,-3.885 z"
       fill="#5f6368"
       id="path3" /><path
       d="m 13.986,11.284 c 0,-0.308 -0.024,-0.616 -0.073,-0.92 h -4.29 v 1.747 h 2.451 a 2.096,2.096 0 0 1 -0.9,1.373 v 1.134 h 1.464 a 4.433,4.433 0 0 0 1.348,-3.334 z"
       fill="#4285f4"
       id="path4" /><path
       d="m 9.629,15.721 a 4.352,4.352 0 0 0 3.01,-1.097 l -1.466,-1.14 A 2.752,2.752 0 0 1 7.079,12.044 H 5.577 v 1.17 a 4.53,4.53 0 0 0 4.052,2.507 z"
       fill="#34a853"
       id="path5" /><path
       d="m 7.079,12.05 a 2.709,2.709 0 0 1 0,-1.735 V 9.145 H 5.577 a 4.505,4.505 0 0 0 0,4.075 z"
       fill="#fbbc04"
       id="path6" /><path
       d="m 9.629,8.44 a 2.452,2.452 0 0 1 1.74,0.68 l 1.3,-1.293 A 4.37,4.37 0 0 0 9.604,6.644 4.53,4.53 0 0 0 5.577,9.144 l 1.502,1.171 A 2.715,2.715 0 0 1 9.629,8.44 Z"
       fill="#ea4335"
       id="path7" /></g></svg>
