<?xml version="1.0" encoding="UTF-8" standalone="no"?>
<svg
   role="img"
   viewBox="0 0 48 28"
   width="48"
   height="28"
   aria-labelledby="pi-american_express"
   version="1.1"
   id="svg3"
   sodipodi:docname="cardUnionPay2.svg"
   inkscape:version="1.3.2 (091e20e, 2023-11-25, custom)"
   xml:space="preserve"
   xmlns:inkscape="http://www.inkscape.org/namespaces/inkscape"
   xmlns:sodipodi="http://sodipodi.sourceforge.net/DTD/sodipodi-0.dtd"
   xmlns="http://www.w3.org/2000/svg"
   xmlns:svg="http://www.w3.org/2000/svg"
   xmlns:rdf="http://www.w3.org/1999/02/22-rdf-syntax-ns#"
   xmlns:cc="http://creativecommons.org/ns#"
   xmlns:dc="http://purl.org/dc/elements/1.1/"><defs
     id="defs3" /><sodipodi:namedview
     id="namedview3"
     pagecolor="#505050"
     bordercolor="#eeeeee"
     borderopacity="1"
     inkscape:showpageshadow="0"
     inkscape:pageopacity="0"
     inkscape:pagecheckerboard="0"
     inkscape:deskcolor="#505050"
     inkscape:zoom="8"
     inkscape:cx="52.375"
     inkscape:cy="28.8125"
     inkscape:window-width="1920"
     inkscape:window-height="1001"
     inkscape:window-x="-9"
     inkscape:window-y="-9"
     inkscape:window-maximized="1"
     inkscape:current-layer="svg3" /><title
     id="pi-american_express">American Express</title><metadata
     id="metadata3"><rdf:RDF><cc:Work
         rdf:about=""><dc:title>American Express</dc:title></cc:Work></rdf:RDF></metadata><g
     fill="none"
     id="g3"
     transform="scale(1.2631579,1.1666667)"><path
       fill="#000000"
       d="M 35,0 H 3 C 1.3,0 0,1.3 0,3 v 18 c 0,1.7 1.4,3 3,3 h 32 c 1.7,0 3,-1.3 3,-3 V 3 C 38,1.3 36.6,0 35,0 Z"
       opacity="0.07"
       id="path1"
       style="opacity:0.08" /></g><g
     id="g5"
     transform="translate(4.8475221,2.7293519)" /><g
     id="g6"
     transform="translate(13.874206,5.6264295)" /><g
     id="g7"
     transform="matrix(1.2631579,0,0,1.1666667,45.473684,-29.166667)"><path
       fill="#005b9a"
       d="m -36,46.8 v 0.7 z M -18.3,25 v 24 h -7.2 c -1.3,0 -2.1,-1 -1.8,-2.3 l 4.4,-19.4 C -22.6,26 -21,25 -19.7,25 Z m 12.6,0 c -1.3,0 -2.9,1 -3.2,2.3 l -4.5,19.4 c -0.3,1.3 0.5,2.3 1.8,2.3 h -4.9 V 25 Z"
       id="path1-7" /><path
       fill="#e9292d"
       d="m -19.7,25 c -1.3,0 -2.9,1.1 -3.2,2.3 l -4.4,19.4 c -0.3,1.3 0.5,2.3 1.8,2.3 h -8.9 c -0.8,0 -1.5,-0.6 -1.5,-1.4 v -21 c 0,-0.8 0.7,-1.6 1.5,-1.6 z"
       id="path2" /><path
       fill="#0e73b9"
       d="m -5.7,25 c -1.3,0 -2.9,1.1 -3.2,2.3 l -4.4,19.4 c -0.3,1.3 0.5,2.3 1.8,2.3 h -14.5 0.5 c -1.3,0 -2.1,-1 -1.8,-2.3 l 4.4,-19.4 C -22.6,26 -21,25 -19.7,25 Z"
       id="path3" /><path
       fill="#059da4"
       d="m 2,26.6 v 21 C 2,48.4 1.4,49 0.5,49 h -12.1 c -1.3,0 -2.1,-1.1 -1.8,-2.3 L -8.9,27.3 C -8.6,26 -7,25 -5.7,25 H 0.5 C 1.4,25 2,25.7 2,26.6 Z"
       id="path4" /><path
       fill="#ffffff"
       d="m -21.122,38.645 h 0.14 c 0.14,0 0.28,-0.07 0.28,-0.14 l 0.42,-0.63 h 1.19 l -0.21,0.35 h 1.4 l -0.21,0.63 h -1.68 c -0.21,0.28 -0.42,0.42 -0.7,0.42 h -0.84 l 0.21,-0.63 m -0.21,0.91 h 3.01 l -0.21,0.7 h -1.19 l -0.21,0.7 h 1.19 l -0.21,0.7 h -1.19 l -0.28,1.05 c -0.07,0.14 0,0.28 0.28,0.21 h 0.98 l -0.21,0.7 h -1.89 c -0.35,0 -0.49,-0.21 -0.35,-0.63 l 0.35,-1.33 h -0.77 l 0.21,-0.7 h 0.77 l 0.21,-0.7 h -0.7 z m 4.83,-1.75 v 0.42 c 0,0 0.56,-0.42 1.12,-0.42 h 1.96 l -0.77,2.66 c -0.07,0.28 -0.35,0.49 -0.77,0.49 h -2.24 l -0.49,1.89 c 0,0.07 0,0.14 0.14,0.14 h 0.42 l -0.14,0.56 h -1.12 c -0.42,0 -0.56,-0.14 -0.49,-0.35 l 1.47,-5.39 z m 1.68,0.77 h -1.75 l -0.21,0.7 c 0,0 0.28,-0.21 0.77,-0.21 h 1.05 z m -0.63,1.68 c 0.14,0 0.21,0 0.21,-0.14 l 0.14,-0.35 h -1.75 l -0.14,0.56 z m -1.19,0.84 h 0.98 v 0.42 h 0.28 c 0.14,0 0.21,-0.07 0.21,-0.14 l 0.07,-0.28 h 0.84 l -0.14,0.49 c -0.07,0.35 -0.35,0.49 -0.77,0.56 h -0.56 v 0.77 c 0,0.14 0.07,0.21 0.35,0.21 h 0.49 l -0.14,0.56 h -1.19 c -0.35,0 -0.49,-0.14 -0.49,-0.49 z m 4.2,-2.45 0.21,-0.84 h 1.19 l -0.07,0.28 c 0,0 0.56,-0.28 1.05,-0.28 h 1.47 l -0.21,0.84 h -0.21 l -1.12,3.85 h 0.21 l -0.21,0.77 h -0.21 l -0.07,0.35 h -1.19 l 0.07,-0.35 h -2.17 l 0.21,-0.77 h 0.21 l 1.12,-3.85 h -0.28 m 1.26,0 -0.28,1.05 c 0,0 0.49,-0.21 0.91,-0.28 0.07,-0.35 0.21,-0.77 0.21,-0.77 z m -0.49,1.54 -0.28,1.12 c 0,0 0.56,-0.28 0.98,-0.28 0.14,-0.42 0.21,-0.77 0.21,-0.77 z m 0.21,2.31 0.21,-0.77 h -0.84 l -0.21,0.77 z m 2.87,-4.69 h 1.12 l 0.07,0.42 c 0,0.07 0.07,0.14 0.21,0.14 h 0.21 l -0.21,0.7 h -0.77 c -0.28,0 -0.49,-0.07 -0.49,-0.35 z m -0.35,1.47 h 3.57 l -0.21,0.77 h -1.19 l -0.21,0.7 h 1.12 l -0.21,0.77 h -1.26 l -0.28,0.42 h 0.63 l 0.14,0.84 c 0,0.07 0.07,0.14 0.21,0.14 h 0.21 l -0.21,0.7 h -0.7 c -0.35,0 -0.56,-0.07 -0.56,-0.35 l -0.14,-0.77 -0.56,0.84 c -0.14,0.21 -0.35,0.35 -0.63,0.35 h -1.05 l 0.21,-0.7 h 0.35 c 0.14,0 0.21,-0.07 0.35,-0.21 l 0.84,-1.26 h -1.05 l 0.21,-0.77 h 1.19 l 0.21,-0.7 h -1.19 z m -19.74,-5.04 c -0.14,0.7 -0.42,1.19 -0.91,1.54 -0.49,0.35 -1.12,0.56 -1.89,0.56 -0.7,0 -1.26,-0.21 -1.54,-0.56 -0.21,-0.28 -0.35,-0.56 -0.35,-0.98 0,-0.14 0,-0.35 0.07,-0.56 l 0.84,-3.92 h 1.19 l -0.77,3.92 v 0.28 c 0,0.21 0.07,0.35 0.14,0.49 0.14,0.21 0.35,0.28 0.7,0.28 0.35,0 0.7,-0.07 0.91,-0.28 0.21,-0.21 0.42,-0.42 0.49,-0.77 l 0.77,-3.92 h 1.19 l -0.84,3.92 m 1.12,-1.54 h 0.84 l -0.07,0.49 0.14,-0.14 c 0.28,-0.28 0.63,-0.42 1.05,-0.42 0.35,0 0.63,0.14 0.77,0.35 0.14,0.21 0.21,0.49 0.14,0.91 l -0.49,2.38 h -0.91 l 0.42,-2.17 c 0.07,-0.28 0.07,-0.49 0,-0.56 -0.07,-0.14 -0.21,-0.14 -0.35,-0.14 -0.21,0 -0.42,0.07 -0.56,0.21 -0.14,0.14 -0.28,0.35 -0.28,0.63 l -0.42,2.03 h -0.91 l 0.63,-3.57 m 9.8,0 h 0.84 l -0.07,0.49 0.14,-0.14 c 0.28,-0.28 0.63,-0.42 1.05,-0.42 0.35,0 0.63,0.14 0.77,0.35 0.14,0.21 0.21,0.49 0.14,0.91 l -0.49,2.38 h -0.91 l 0.42,-2.24 c 0.07,-0.21 0,-0.42 -0.07,-0.49 -0.07,-0.14 -0.21,-0.14 -0.35,-0.14 -0.21,0 -0.42,0.07 -0.56,0.21 -0.14,0.14 -0.28,0.35 -0.28,0.63 l -0.42,2.03 h -0.91 l 0.7,-3.57 m -5.81,0 h 0.98 l -0.77,3.5 h -0.98 l 0.77,-3.5 m 0.35,-1.33 h 0.98 l -0.21,0.84 h -0.98 z m 1.4,4.55 c -0.21,-0.21 -0.35,-0.56 -0.35,-0.98 v -0.21 c 0,-0.07 0,-0.21 0.07,-0.28 0.14,-0.56 0.35,-1.05 0.7,-1.33 0.35,-0.35 0.84,-0.49 1.33,-0.49 0.42,0 0.77,0.14 1.05,0.35 0.21,0.21 0.35,0.56 0.35,0.98 v 0.21 c 0,0.07 0,0.21 -0.07,0.28 -0.14,0.56 -0.35,0.98 -0.7,1.33 -0.35,0.35 -0.84,0.49 -1.33,0.49 -0.35,0 -0.7,-0.14 -1.05,-0.35 m 1.89,-0.7 c 0.14,-0.21 0.28,-0.49 0.35,-0.84 v -0.35 c 0,-0.21 -0.07,-0.35 -0.14,-0.49 a 0.635,0.635 0 0 0 -0.49,-0.21 c -0.28,0 -0.49,0.07 -0.63,0.28 -0.14,0.21 -0.28,0.49 -0.35,0.84 v 0.28 c 0,0.21 0.07,0.35 0.14,0.49 0.14,0.14 0.28,0.21 0.49,0.21 0.28,0.07 0.42,0 0.63,-0.21 m 6.51,-4.69 h 2.52 c 0.49,0 0.84,0.14 1.12,0.35 0.28,0.21 0.35,0.56 0.35,0.91 v 0.28 c 0,0.07 0,0.21 -0.07,0.28 -0.07,0.49 -0.35,0.98 -0.7,1.26 -0.42,0.35 -0.84,0.49 -1.4,0.49 h -1.4 l -0.42,2.03 h -1.19 l 1.19,-5.6 m 0.56,2.59 h 1.12 c 0.28,0 0.49,-0.07 0.7,-0.21 0.14,-0.14 0.28,-0.35 0.35,-0.63 v -0.28 c 0,-0.21 -0.07,-0.35 -0.21,-0.42 -0.14,-0.07 -0.35,-0.14 -0.7,-0.14 h -0.91 z m 8.68,3.71 c -0.35,0.77 -0.7,1.26 -0.91,1.47 -0.21,0.21 -0.63,0.7 -1.61,0.7 l 0.07,-0.63 c 0.84,-0.28 1.26,-1.4 1.54,-1.96 l -0.28,-3.78 h 1.19 l 0.07,2.38 0.91,-2.31 h 1.05 l -2.03,4.13 m -2.94,-3.85 -0.42,0.28 c -0.42,-0.35 -0.84,-0.56 -1.54,-0.21 -0.98,0.49 -1.89,4.13 0.91,2.94 l 0.14,0.21 h 1.12 l 0.7,-3.29 -0.91,0.07 m -0.56,1.82 c -0.21,0.56 -0.56,0.84 -0.91,0.77 -0.28,-0.14 -0.35,-0.63 -0.21,-1.19 0.21,-0.56 0.56,-0.84 0.91,-0.77 0.28,0.14 0.35,0.63 0.21,1.19"
       id="path5" /></g></svg>
