<?xml version="1.0" encoding="UTF-8" standalone="no"?>
<svg
   role="img"
   viewBox="0 0 48 28"
   width="48"
   height="28"
   aria-labelledby="pi-american_express"
   version="1.1"
   id="svg3"
   sodipodi:docname="cardApplePay.svg"
   inkscape:version="1.3.2 (091e20e, 2023-11-25, custom)"
   xml:space="preserve"
   xmlns:inkscape="http://www.inkscape.org/namespaces/inkscape"
   xmlns:sodipodi="http://sodipodi.sourceforge.net/DTD/sodipodi-0.dtd"
   xmlns="http://www.w3.org/2000/svg"
   xmlns:svg="http://www.w3.org/2000/svg"
   xmlns:rdf="http://www.w3.org/1999/02/22-rdf-syntax-ns#"
   xmlns:cc="http://creativecommons.org/ns#"
   xmlns:dc="http://purl.org/dc/elements/1.1/"><defs
     id="defs3" /><sodipodi:namedview
     id="namedview3"
     pagecolor="#505050"
     bordercolor="#eeeeee"
     borderopacity="1"
     inkscape:showpageshadow="0"
     inkscape:pageopacity="0"
     inkscape:pagecheckerboard="0"
     inkscape:deskcolor="#505050"
     inkscape:zoom="11.313708"
     inkscape:cx="32.792078"
     inkscape:cy="21.080622"
     inkscape:window-width="1920"
     inkscape:window-height="1001"
     inkscape:window-x="-9"
     inkscape:window-y="-9"
     inkscape:window-maximized="1"
     inkscape:current-layer="svg3" /><title
     id="pi-american_express">American Express</title><metadata
     id="metadata3"><rdf:RDF><cc:Work
         rdf:about=""><dc:title>American Express</dc:title></cc:Work></rdf:RDF></metadata><g
     id="g3"
     transform="scale(0.28999341,0.26424069)"><path
       fill="#000000"
       d="M 150.698,0 H 14.823 C 14.257,0 13.69,0 13.125,0.003 12.648,0.007 12.172,0.012 11.695,0.025 10.656,0.053 9.608,0.115 8.582,0.299 A 10.51,10.51 0 0 0 5.624,1.274 9.932,9.932 0 0 0 1.274,5.624 10.463,10.463 0 0 0 0.299,8.584 C 0.113,9.611 0.052,10.658 0.024,11.696 a 70.22,70.22 0 0 0 -0.022,1.43 C 0,13.69 0,14.256 0,14.823 v 76.318 c 0,0.567 0,1.132 0.002,1.699 0.003,0.476 0.009,0.953 0.022,1.43 0.028,1.036 0.09,2.084 0.275,3.11 a 10.46,10.46 0 0 0 0.974,2.96 9.897,9.897 0 0 0 1.83,2.52 9.874,9.874 0 0 0 2.52,1.83 c 0.947,0.483 1.917,0.79 2.96,0.977 1.025,0.183 2.073,0.245 3.112,0.273 0.477,0.011 0.953,0.017 1.43,0.02 0.565,0.004 1.132,0.004 1.698,0.004 h 135.875 c 0.565,0 1.132,0 1.697,-0.004 0.476,-0.002 0.952,-0.009 1.431,-0.02 1.037,-0.028 2.085,-0.09 3.113,-0.273 a 10.478,10.478 0 0 0 2.958,-0.977 9.955,9.955 0 0 0 4.35,-4.35 c 0.483,-0.947 0.789,-1.917 0.974,-2.96 0.186,-1.026 0.246,-2.074 0.274,-3.11 0.013,-0.477 0.02,-0.954 0.022,-1.43 0.004,-0.567 0.004,-1.132 0.004,-1.699 V 14.824 c 0,-0.567 0,-1.133 -0.004,-1.699 a 63.067,63.067 0 0 0 -0.022,-1.429 c -0.028,-1.038 -0.088,-2.085 -0.274,-3.112 a 10.4,10.4 0 0 0 -0.974,-2.96 9.94,9.94 0 0 0 -4.35,-4.35 A 10.52,10.52 0 0 0 156.939,0.3 C 155.911,0.115 154.863,0.054 153.826,0.026 A 71.417,71.417 0 0 0 152.395,0.004 C 151.83,0 151.263,0 150.698,0 Z"
       id="path1" /><path
       fill="#ffffff"
       d="m 150.698,3.532 1.672,0.003 c 0.452,0.003 0.905,0.008 1.36,0.02 0.793,0.022 1.719,0.065 2.583,0.22 0.75,0.135 1.38,0.34 1.984,0.648 a 6.392,6.392 0 0 1 2.804,2.807 c 0.306,0.6 0.51,1.226 0.645,1.983 0.154,0.854 0.197,1.783 0.218,2.58 0.013,0.45 0.019,0.9 0.02,1.36 0.005,0.557 0.005,1.113 0.005,1.671 v 76.318 c 0,0.558 0,1.114 -0.004,1.682 -0.002,0.45 -0.008,0.9 -0.02,1.35 -0.022,0.796 -0.065,1.725 -0.221,2.589 a 6.855,6.855 0 0 1 -0.645,1.975 6.397,6.397 0 0 1 -2.808,2.807 c -0.6,0.306 -1.228,0.511 -1.971,0.645 -0.881,0.157 -1.847,0.2 -2.574,0.22 -0.457,0.01 -0.912,0.017 -1.379,0.019 -0.555,0.004 -1.113,0.004 -1.669,0.004 H 14.801 c -0.55,0 -1.1,0 -1.66,-0.004 a 74.993,74.993 0 0 1 -1.35,-0.018 c -0.744,-0.02 -1.71,-0.064 -2.584,-0.22 A 6.938,6.938 0 0 1 7.221,101.541 6.337,6.337 0 0 1 5.599,100.361 6.355,6.355 0 0 1 4.421,98.738 6.935,6.935 0 0 1 3.775,96.753 C 3.619,95.89 3.575,94.965 3.555,94.175 A 66.088,66.088 0 0 1 3.535,92.82 L 3.532,91.493 V 14.474 l 0.002,-1.325 a 66.7,66.7 0 0 1 0.02,-1.357 C 3.576,11 3.619,10.075 3.776,9.205 A 6.924,6.924 0 0 1 4.422,7.224 C 4.726,6.626 5.122,6.08 5.602,5.601 a 6.386,6.386 0 0 1 1.624,-1.18 6.96,6.96 0 0 1 1.98,-0.646 c 0.865,-0.155 1.792,-0.198 2.586,-0.22 0.452,-0.012 0.905,-0.017 1.354,-0.02 l 1.677,-0.003 h 135.875"
       id="path2" /><g
       id="g8"><g
         id="g4"><path
           fill="#000000"
           d="m 43.508,35.77 c 1.404,-1.755 2.356,-4.112 2.105,-6.52 -2.054,0.102 -4.56,1.355 -6.012,3.112 -1.303,1.504 -2.456,3.959 -2.156,6.266 2.306,0.2 4.61,-1.152 6.063,-2.858"
           id="path3" /><path
           fill="#000000"
           d="m 45.587,39.079 c -3.35,-0.2 -6.196,1.9 -7.795,1.9 -1.6,0 -4.049,-1.8 -6.698,-1.751 -3.447,0.05 -6.645,2 -8.395,5.1 -3.598,6.2 -0.95,15.4 2.55,20.45 1.699,2.5 3.747,5.25 6.445,5.151 2.55,-0.1 3.549,-1.65 6.647,-1.65 3.097,0 3.997,1.65 6.696,1.6 2.798,-0.05 4.548,-2.5 6.247,-5 1.95,-2.85 2.747,-5.6 2.797,-5.75 -0.05,-0.05 -5.396,-2.101 -5.446,-8.251 -0.05,-5.15 4.198,-7.6 4.398,-7.751 -2.399,-3.548 -6.147,-3.948 -7.447,-4.048"
           id="path4" /></g><g
         id="g7"><path
           fill="#000000"
           d="m 78.973,32.11 c 7.278,0 12.347,5.017 12.347,12.321 0,7.33 -5.173,12.373 -12.529,12.373 H 70.733 V 69.62 H 64.911 V 32.11 Z m -8.24,19.807 h 6.68 c 5.07,0 7.954,-2.729 7.954,-7.46 0,-4.73 -2.885,-7.434 -7.928,-7.434 h -6.706 z"
           id="path5" /><path
           fill="#000000"
           d="m 92.764,61.847 c 0,-4.809 3.665,-7.564 10.423,-7.98 l 7.252,-0.442 v -2.08 c 0,-3.04 -2.001,-4.704 -5.562,-4.704 -2.938,0 -5.07,1.507 -5.51,3.82 h -5.252 c 0.157,-4.86 4.731,-8.395 10.918,-8.395 6.654,0 10.995,3.483 10.995,8.89 v 18.663 h -5.38 v -4.497 h -0.13 c -1.534,2.937 -4.914,4.782 -8.579,4.782 -5.406,0 -9.175,-3.222 -9.175,-8.057 z m 17.675,-2.417 v -2.106 l -6.472,0.416 c -3.64,0.234 -5.536,1.585 -5.536,3.95 0,2.288 1.975,3.77 5.068,3.77 3.95,0 6.94,-2.522 6.94,-6.03 z"
           id="path6" /><path
           fill="#000000"
           d="m 120.975,79.652 v -4.496 c 0.364,0.051 1.247,0.103 1.715,0.103 2.573,0 4.029,-1.09 4.913,-3.899 l 0.52,-1.663 -9.852,-27.293 h 6.082 l 6.863,22.146 h 0.13 l 6.862,-22.146 h 5.927 l -10.216,28.67 c -2.34,6.577 -5.017,8.735 -10.683,8.735 -0.442,0 -1.872,-0.052 -2.261,-0.157 z"
           id="path7" /></g></g></g></svg>
