<?xml version="1.0" encoding="UTF-8" standalone="no"?>
<svg
   role="img"
   viewBox="0 0 48 28"
   width="48"
   height="28"
   aria-labelledby="pi-american_express"
   version="1.1"
   id="svg3"
   sodipodi:docname="cardAmex2.svg"
   inkscape:version="1.3.2 (091e20e, 2023-11-25, custom)"
   xml:space="preserve"
   xmlns:inkscape="http://www.inkscape.org/namespaces/inkscape"
   xmlns:sodipodi="http://sodipodi.sourceforge.net/DTD/sodipodi-0.dtd"
   xmlns="http://www.w3.org/2000/svg"
   xmlns:svg="http://www.w3.org/2000/svg"
   xmlns:rdf="http://www.w3.org/1999/02/22-rdf-syntax-ns#"
   xmlns:cc="http://creativecommons.org/ns#"
   xmlns:dc="http://purl.org/dc/elements/1.1/"><defs
     id="defs3" /><sodipodi:namedview
     id="namedview3"
     pagecolor="#505050"
     bordercolor="#eeeeee"
     borderopacity="1"
     inkscape:showpageshadow="0"
     inkscape:pageopacity="0"
     inkscape:pagecheckerboard="0"
     inkscape:deskcolor="#505050"
     inkscape:zoom="16.395833"
     inkscape:cx="35.374841"
     inkscape:cy="14.485388"
     inkscape:window-width="1920"
     inkscape:window-height="1001"
     inkscape:window-x="-9"
     inkscape:window-y="-9"
     inkscape:window-maximized="1"
     inkscape:current-layer="svg3" /><title
     id="pi-american_express">American Express</title><metadata
     id="metadata3"><rdf:RDF><cc:Work
         rdf:about=""><dc:title>American Express</dc:title></cc:Work></rdf:RDF></metadata><g
     fill="none"
     id="g3"
     transform="scale(1.2631579,1.1666667)"><path
       fill="#000000"
       d="M 35,0 H 3 C 1.3,0 0,1.3 0,3 v 18 c 0,1.7 1.4,3 3,3 h 32 c 1.7,0 3,-1.3 3,-3 V 3 C 38,1.3 36.6,0 35,0 Z"
       opacity="0.07"
       id="path1"
       style="opacity:0.08" /><path
       fill="#006fcf"
       d="m 35.185185,0.85714283 c 1.112732,0 2.023149,0.91168827 2.023149,2.02597397 V 21.116883 c 0,1.114285 -0.910417,2.025974 -2.023149,2.025974 H 2.8148148 c -1.1127314,0 -2.02314814,-0.911689 -2.02314814,-2.025974 V 2.8831168 c 0,-1.1142857 0.91041674,-2.02597397 2.02314814,-2.02597397 H 35.185185"
       id="path2"
       style="stroke-width:1.01228" /><path
       fill="#ffffff"
       d="m 8.971,10.268 0.774,1.876 H 8.203 Z m 16.075,0.078 h -2.977 v 0.827 h 2.929 v 1.239 h -2.923 v 0.922 h 2.977 v 0.739 l 2.077,-2.245 -2.077,-2.34 z M 10.983,8.006 h 3.995 L 15.865,9.941 16.687,8 h 10.37 L 28.135,9.19 29.25,8 h 4.763 l -3.519,3.852 3.483,3.828 H 29.143 L 28.065,14.49 26.94,15.68 H 10.03 L 9.536,14.49 H 8.406 L 7.911,15.68 H 4 L 7.286,8 h 3.43 z m 8.663,1.078 h -2.239 l -1.5,3.536 -1.625,-3.536 H 12.06 v 4.81 L 10,9.084 H 8.007 L 5.625,14.596 H 7.18 l 0.494,-1.19 h 2.596 l 0.494,1.19 h 2.72 v -3.935 l 1.751,3.941 h 1.19 l 1.74,-3.929 v 3.93 h 1.458 l 0.024,-5.52 z m 9.34,2.768 2.531,-2.768 H 29.695 L 28.094,10.81 26.546,9.084 h -5.894 v 5.518 h 5.81 l 1.614,-1.738 1.548,1.738 h 1.875 l -2.512,-2.75 z"
       id="path3" /></g></svg>
