<?xml version="1.0" encoding="UTF-8" standalone="no"?>
<svg
   role="img"
   viewBox="0 0 48 28"
   width="48"
   height="28"
   aria-labelledby="pi-american_express"
   version="1.1"
   id="svg3"
   sodipodi:docname="cardPaypalBlackWhite.svg"
   inkscape:version="1.3.2 (091e20e, 2023-11-25, custom)"
   xml:space="preserve"
   xmlns:inkscape="http://www.inkscape.org/namespaces/inkscape"
   xmlns:sodipodi="http://sodipodi.sourceforge.net/DTD/sodipodi-0.dtd"
   xmlns="http://www.w3.org/2000/svg"
   xmlns:svg="http://www.w3.org/2000/svg"
   xmlns:rdf="http://www.w3.org/1999/02/22-rdf-syntax-ns#"
   xmlns:cc="http://creativecommons.org/ns#"
   xmlns:dc="http://purl.org/dc/elements/1.1/"><defs
     id="defs3"><linearGradient
       id="pi-paint0_linear"
       x1="21.657"
       y1="12.275"
       x2="19.632"
       y2="9.104"
       gradientUnits="userSpaceOnUse"><stop
         stop-color="#F89F20"
         id="stop8" /><stop
         offset=".25"
         stop-color="#F79A20"
         id="stop9" /><stop
         offset=".533"
         stop-color="#F68D20"
         id="stop10" /><stop
         offset=".62"
         stop-color="#F58720"
         id="stop11" /><stop
         offset=".723"
         stop-color="#F48120"
         id="stop12" /><stop
         offset="1"
         stop-color="#F37521"
         id="stop13" /></linearGradient><linearGradient
       id="pi-paint1_linear"
       x1="21.338"
       y1="12.232"
       x2="18.378"
       y2="6.446"
       gradientUnits="userSpaceOnUse"><stop
         stop-color="#F58720"
         id="stop14" /><stop
         offset=".359"
         stop-color="#E16F27"
         id="stop15" /><stop
         offset=".703"
         stop-color="#D4602C"
         id="stop16" /><stop
         offset=".982"
         stop-color="#D05B2E"
         id="stop17" /></linearGradient><linearGradient
       id="paint0_linear"
       x1="57"
       y1="5"
       x2="57"
       y2="80"
       gradientUnits="userSpaceOnUse"><stop
         stop-color="#F5F5F5"
         id="stop4" /><stop
         offset="1"
         stop-color="white"
         id="stop5" /></linearGradient></defs><sodipodi:namedview
     id="namedview3"
     pagecolor="#505050"
     bordercolor="#eeeeee"
     borderopacity="1"
     inkscape:showpageshadow="0"
     inkscape:pageopacity="0"
     inkscape:pagecheckerboard="0"
     inkscape:deskcolor="#505050"
     inkscape:zoom="8"
     inkscape:cx="4.625"
     inkscape:cy="3.8125"
     inkscape:window-width="1920"
     inkscape:window-height="1001"
     inkscape:window-x="-9"
     inkscape:window-y="-9"
     inkscape:window-maximized="1"
     inkscape:current-layer="svg3" /><title
     id="pi-american_express">American Express</title><metadata
     id="metadata3"><rdf:RDF><cc:Work
         rdf:about=""><dc:title>American Express</dc:title></cc:Work></rdf:RDF></metadata><g
     fill="none"
     id="g3"
     transform="scale(1.2631579,1.1666667)"><path
       fill="#000000"
       d="M 35,0 H 3 C 1.3,0 0,1.3 0,3 v 18 c 0,1.7 1.4,3 3,3 h 32 c 1.7,0 3,-1.3 3,-3 V 3 C 38,1.3 36.6,0 35,0 Z"
       opacity="0.07"
       id="path1"
       style="opacity:0.08" /></g><g
     id="g5"
     transform="translate(4.8475221,2.7293519)" /><g
     id="g6"
     transform="translate(13.874206,5.6264295)" /><g
     style="fill:none"
     id="g1"
     transform="matrix(0.39999996,0,0,0.32499419,1,1)"><rect
       x="0.5"
       y="0.5"
       width="114"
       height="79"
       rx="9.5"
       fill="url(#paint0_linear)"
       id="rect1"
       style="mix-blend-mode:normal;fill:#000000" /><rect
       x="0.5"
       y="0.5"
       width="114"
       height="79"
       rx="9.5"
       stroke="#e8e8e8"
       id="rect2" /><rect
       x="0.5"
       y="0.5"
       width="114"
       height="79"
       rx="9.5"
       stroke="#ededed"
       id="rect3" /><path
       d="m 19.8683,27 h -7.693 c -0.2546,-2e-4 -0.501,0.0903 -0.6947,0.255 -0.1936,0.1648 -0.3218,0.393 -0.3615,0.6436 L 8.00769,47.5471 c -0.01431,0.0912 -0.0086,0.1844 0.01672,0.2732 0.02532,0.0887 0.06965,0.171 0.12995,0.241 0.0603,0.0701 0.13512,0.1263 0.21932,0.1648 0.08421,0.0385 0.17578,0.0584 0.26843,0.0583 h 3.67269 c 0.2549,1e-4 0.5014,-0.0905 0.695,-0.2555 0.1937,-0.165 0.3218,-0.3935 0.3613,-0.6442 l 0.8391,-5.2996 c 0.0394,-0.2505 0.1674,-0.4789 0.3608,-0.6438 0.1935,-0.165 0.4397,-0.2557 0.6944,-0.2558 h 2.4353 c 5.0676,0 7.9922,-2.4425 8.756,-7.2827 0.3442,-2.1175 0.0146,-3.7813 -0.9809,-4.9466 C 24.3825,27.6767 22.4432,27 19.8683,27 Z m 0.8876,7.1762 c -0.4207,2.7495 -2.5299,2.7495 -4.5693,2.7495 h -1.1608 l 0.8144,-5.1348 c 0.0238,-0.1503 0.1007,-0.2871 0.2168,-0.3859 0.1161,-0.0988 0.2638,-0.1531 0.4165,-0.1531 h 0.532 c 1.3893,0 2.6997,0 3.3769,0.7888 0.4038,0.4706 0.5276,1.1697 0.3735,2.1355 z m 22.1082,-0.0885 h -3.684 c -0.1526,0 -0.3003,0.0543 -0.4164,0.1531 -0.1161,0.0988 -0.193,0.2356 -0.2169,0.3858 l -0.1631,1.0263 -0.2576,-0.372 c -0.7975,-1.1529 -2.5759,-1.5383 -4.351,-1.5383 -4.0709,0 -7.5479,3.071 -8.225,7.379 -0.3521,2.1489 0.1485,4.2038 1.3723,5.6368 1.1226,1.3176 2.729,1.8666 4.6401,1.8666 3.2801,0 5.0991,-2.1008 5.0991,-2.1008 l -0.1643,1.0196 c -0.0146,0.0911 -0.0092,0.1844 0.0158,0.2732 0.025,0.0889 0.0691,0.1714 0.1292,0.2416 0.0601,0.0703 0.1347,0.1268 0.2189,0.1656 0.0841,0.0388 0.1756,0.0589 0.2683,0.059 h 3.3184 c 0.2548,2e-4 0.5013,-0.0904 0.695,-0.2554 0.1937,-0.165 0.3218,-0.3935 0.3612,-0.6442 l 1.9911,-12.5587 c 0.0146,-0.0909 0.0093,-0.184 -0.0157,-0.2727 -0.025,-0.0887 -0.069,-0.1709 -0.129,-0.241 -0.06,-0.0701 -0.1346,-0.1264 -0.2185,-0.165 -0.084,-0.0386 -0.1754,-0.0585 -0.2679,-0.0585 z m -5.135,7.1415 c -0.3555,2.0962 -2.0259,3.5035 -4.1564,3.5035 -1.0698,0 -1.9247,-0.3418 -2.4736,-0.9893 -0.5445,-0.6432 -0.7515,-1.5585 -0.5782,-2.5781 0.3318,-2.0784 2.0304,-3.5315 4.1283,-3.5315 1.0461,0 1.8965,0.3462 2.4567,0.9994 0.5613,0.6599 0.784,1.5809 0.6232,2.596 z m 24.755,-7.1415 h -3.7019 c -0.1746,3e-4 -0.3465,0.043 -0.5008,0.1244 -0.1542,0.0814 -0.2862,0.1991 -0.3845,0.3428 l -5.1058,7.491 -2.1643,-7.1986 C 50.5604,34.6278 50.4248,34.4354 50.24,34.2985 50.0553,34.1617 49.8312,34.0878 49.601,34.0877 h -3.6379 c -0.1021,-3e-4 -0.2028,0.0237 -0.2937,0.0701 -0.0909,0.0463 -0.1694,0.1136 -0.2289,0.1962 -0.0596,0.0827 -0.0984,0.1783 -0.1134,0.2789 -0.0149,0.1006 -0.0055,0.2033 0.0275,0.2996 l 4.0776,11.9189 -3.8335,5.3902 c -0.0682,0.0956 -0.1086,0.208 -0.1168,0.3249 -0.0083,0.1169 0.0159,0.2339 0.0699,0.338 0.054,0.1041 0.1358,0.1915 0.2363,0.2524 0.1005,0.0609 0.216,0.0931 0.3336,0.0931 h 3.6975 c 0.1726,2e-4 0.3427,-0.0412 0.4957,-0.1208 0.1531,-0.0797 0.2844,-0.1951 0.3828,-0.3363 L 63.0106,35.0905 c 0.0667,-0.0958 0.1058,-0.208 0.1131,-0.3243 0.0074,-0.1164 -0.0175,-0.2325 -0.0717,-0.3358 -0.0542,-0.1033 -0.1358,-0.1899 -0.2359,-0.2503 -0.1001,-0.0604 -0.2149,-0.0924 -0.332,-0.0924 z"
       fill="#253b80"
       id="path3" /><path
       d="m 74.6814,27.0011 h -7.4918 c -0.2478,10e-5 -0.4874,0.0917 -0.6757,0.2584 -0.1884,0.1666 -0.3131,0.3973 -0.3517,0.6505 l -3.0295,19.8748 c -0.0141,0.092 -0.0088,0.1862 0.0157,0.2759 0.0245,0.0897 0.0674,0.1729 0.1259,0.2437 0.0585,0.0709 0.1312,0.1278 0.213,0.1668 0.0818,0.0391 0.1708,0.0593 0.2609,0.0593 h 3.8445 c 0.1734,-3e-4 0.3411,-0.0646 0.4728,-0.1813 0.1317,-0.1168 0.2188,-0.2783 0.2457,-0.4556 l 0.8598,-5.6337 c 0.0384,-0.2535 0.1629,-0.4844 0.3513,-0.6513 0.1884,-0.1668 0.4281,-0.2586 0.6761,-0.2587 h 2.3702 c 4.9353,0 7.782,-2.4706 8.5268,-7.3665 0.3362,-2.1419 0.0131,-3.8249 -0.9562,-5.0035 -1.0635,-1.2943 -2.9507,-1.9788 -5.4578,-1.9788 z m 0.8642,7.2588 c -0.4086,2.7812 -2.4622,2.7812 -4.4491,2.7812 h -1.1292 l 0.794,-5.194 c 0.0228,-0.1519 0.0974,-0.2904 0.2103,-0.3904 0.1129,-0.1 0.2567,-0.1549 0.4053,-0.1547 h 0.5181 c 1.3515,0 2.6287,0 3.288,0.7979 0.3932,0.4759 0.5126,1.1831 0.3626,2.16 z m 21.5256,-0.0895 h -3.5848 c -0.1487,-4e-4 -0.2926,0.0544 -0.4056,0.1544 -0.1129,0.1 -0.1874,0.2387 -0.21,0.3907 l -0.1588,1.0381 -0.2519,-0.3762 c -0.7766,-1.1662 -2.5071,-1.5561 -4.2355,-1.5561 -3.9638,0 -7.3483,3.1064 -8.0076,7.464 -0.3418,2.1737 0.1434,4.2521 1.3351,5.7016 1.0953,1.3328 2.6572,1.8881 4.5181,1.8881 3.1938,0 4.9649,-2.1249 4.9649,-2.1249 l -0.1599,1.0313 c -0.0143,0.0924 -0.009,0.1869 0.0155,0.2769 0.0245,0.0901 0.0676,0.1736 0.1263,0.2447 0.0588,0.0712 0.1318,0.1282 0.2139,0.1673 0.0822,0.0391 0.1716,0.0592 0.262,0.059 h 3.23 c 0.248,-10e-5 0.4877,-0.0919 0.6761,-0.2587 0.1884,-0.1669 0.3129,-0.3978 0.3513,-0.6513 l 1.9398,-12.7032 c 0.0137,-0.0923 0.008,-0.1866 -0.0168,-0.2763 -0.0248,-0.0898 -0.0681,-0.173 -0.1269,-0.2438 -0.0587,-0.0709 -0.1317,-0.1277 -0.2137,-0.1667 -0.082,-0.0389 -0.1712,-0.059 -0.2615,-0.0589 z m -5,7.2237 c -0.3439,2.1204 -1.9726,3.5438 -4.047,3.5438 -1.0395,0 -1.8741,-0.3456 -2.4086,-1.0007 -0.5301,-0.6505 -0.7294,-1.5764 -0.563,-2.6077 0.3253,-2.1023 1.977,-3.5722 4.0197,-3.5722 1.0187,0 1.8467,0.3502 2.3922,1.0109 0.5487,0.6675 0.7656,1.5991 0.6067,2.6259 z M 101.3,27.5463 98.2257,47.7848 c -0.0141,0.092 -0.0088,0.1862 0.0157,0.2759 0.0245,0.0897 0.0674,0.1729 0.1259,0.2437 0.0585,0.0709 0.1312,0.1278 0.213,0.1668 0.0818,0.0391 0.1708,0.0593 0.2609,0.0593 h 3.0908 c 0.514,0 0.95,-0.3853 1.029,-0.9101 l 3.031,-19.8736 c 0.014,-0.0921 0.009,-0.1863 -0.015,-0.276 -0.025,-0.0898 -0.068,-0.173 -0.126,-0.244 -0.059,-0.071 -0.131,-0.128 -0.213,-0.1671 -0.082,-0.0392 -0.171,-0.0595 -0.261,-0.0597 h -3.461 c -0.149,5e-4 -0.292,0.0558 -0.405,0.1559 -0.113,0.1001 -0.188,0.2385 -0.211,0.3904 z"
       fill="#179bd7"
       id="path4" /></g></svg>
