<?xml version="1.0" encoding="UTF-8" standalone="no"?>
<svg
   role="img"
   viewBox="0 0 48 28"
   width="48"
   height="28"
   aria-labelledby="pi-american_express"
   version="1.1"
   id="svg3"
   sodipodi:docname="cardVisa2.svg"
   inkscape:version="1.3.2 (091e20e, 2023-11-25, custom)"
   xml:space="preserve"
   xmlns:inkscape="http://www.inkscape.org/namespaces/inkscape"
   xmlns:sodipodi="http://sodipodi.sourceforge.net/DTD/sodipodi-0.dtd"
   xmlns="http://www.w3.org/2000/svg"
   xmlns:svg="http://www.w3.org/2000/svg"
   xmlns:rdf="http://www.w3.org/1999/02/22-rdf-syntax-ns#"
   xmlns:cc="http://creativecommons.org/ns#"
   xmlns:dc="http://purl.org/dc/elements/1.1/"><defs
     id="defs3" /><sodipodi:namedview
     id="namedview3"
     pagecolor="#505050"
     bordercolor="#eeeeee"
     borderopacity="1"
     inkscape:showpageshadow="0"
     inkscape:pageopacity="0"
     inkscape:pagecheckerboard="0"
     inkscape:deskcolor="#505050"
     inkscape:zoom="16.395833"
     inkscape:cx="35.374841"
     inkscape:cy="14.485388"
     inkscape:window-width="1920"
     inkscape:window-height="1001"
     inkscape:window-x="-9"
     inkscape:window-y="-9"
     inkscape:window-maximized="1"
     inkscape:current-layer="svg3" /><title
     id="pi-american_express">American Express</title><metadata
     id="metadata3"><rdf:RDF><cc:Work
         rdf:about=""><dc:title>American Express</dc:title></cc:Work></rdf:RDF></metadata><g
     fill="none"
     id="g3"
     transform="scale(1.2631579,1.1666667)"><path
       fill="#000000"
       d="M 35,0 H 3 C 1.3,0 0,1.3 0,3 v 18 c 0,1.7 1.4,3 3,3 h 32 c 1.7,0 3,-1.3 3,-3 V 3 C 38,1.3 36.6,0 35,0 Z"
       opacity="0.07"
       id="path1"
       style="opacity:0.08" /></g><g
     id="g5"
     transform="translate(4.8475221,2.7293519)" /><g
     id="g6"
     transform="translate(13.874206,5.6264295)"><path
       fill="#ffffff"
       d="m 30.570238,-4.6264295 c 1.405556,0 2.555556,1.0636364 2.555556,2.3636364 V 19.009934 c 0,1.3 -1.15,2.363636 -2.555556,2.363636 H -10.31865 c -1.405556,0 -2.555556,-1.063636 -2.555556,-2.363636 V -2.2627931 c 0,-1.3 1.15,-2.3636364 2.555556,-2.3636364 h 40.888888"
       id="path2"
       style="stroke-width:1.22886" /><path
       d="m 22.009127,6.1281155 h -0.383333 c -0.511111,1.181819 -0.894444,1.772728 -1.277778,3.545455 h 2.427778 c -0.383333,-1.772727 -0.383333,-2.6 -0.766667,-3.545455 z m 3.705556,6.9727285 h -2.172222 c -0.127778,0 -0.127778,0 -0.255556,-0.118183 L 23.03135,11.919026 22.903572,11.682661 h -3.066667 c -0.127778,0 -0.255555,0 -0.255555,0.236364 l -0.383334,1.063636 c 0,0.118182 -0.127778,0.118182 -0.127778,0.118182 h -2.683333 l 0.255556,-0.590908 3.705555,-8.0363645 c 0,-0.5909091 0.383334,-0.8272727 1.022222,-0.8272727 h 1.916667 c 0.127778,0 0.255556,0 0.255556,0.2363636 L 25.33135,11.56448 c 0.127777,0.472727 0.255555,0.827273 0.255555,1.3 0.127778,0.118182 0.127778,0.118182 0.127778,0.236364 z M 8.592461,12.746298 9.103572,10.619025 c 0.127778,0 0.255555,0.118181 0.255555,0.118181 0.894445,0.354546 1.788889,0.590909 2.683334,0.472728 0.255555,0 0.638889,-0.118182 0.894444,-0.236363 0.638889,-0.236364 0.638889,-0.827273 0.127778,-1.3000005 -0.255556,-0.236364 -0.638889,-0.354545 -1.022222,-0.590909 -0.511111,-0.236364 -1.022223,-0.472727 -1.405556,-0.827273 -1.533333,-1.181818 -1.022222,-2.836363 -0.127778,-3.663636 0.766667,-0.4727275 1.15,-0.9454547 2.172223,-0.9454547 1.533333,0 3.194444,0 3.961111,0.2363636 h 0.127777 c -0.127777,0.7090911 -0.255555,1.3000001 -0.511111,2.0090911 -0.638889,-0.236364 -1.277777,-0.472727 -1.916666,-0.472727 -0.383334,0 -0.766667,0 -1.15,0.118181 -0.255556,0 -0.383334,0.118182 -0.511111,0.236364 -0.255556,0.236364 -0.255556,0.590909 0,0.827273 l 0.638888,0.472727 c 0.511112,0.236364 1.022223,0.472727 1.405556,0.709091 0.638889,0.354545 1.277778,0.945454 1.405556,1.654545 0.255555,1.0636375 -0.127778,2.0090915 -1.15,2.7181825 -0.638889,0.472727 -0.894445,0.709091 -1.788889,0.709091 -1.788889,0 -3.194445,0.118182 -4.344445,-0.236364 C 8.720238,12.86448 8.720238,12.86448 8.592461,12.746298 Z M 4.120238,13.100844 C 4.248016,12.27357 4.248016,12.27357 4.375794,11.919026 5.014683,9.3190255 5.653572,6.6008435 6.164683,4.0008432 6.292461,3.7644796 6.292461,3.6462978 6.548016,3.6462978 h 2.3 C 8.592461,5.0644795 8.336905,6.1281155 7.953572,7.4281155 7.570238,9.2008435 7.186905,10.973571 6.675794,12.746298 c 0,0.236363 -0.127778,0.236363 -0.383333,0.236363 M -7.7630949,3.8826614 c 0,-0.1181818 0.2555556,-0.2363636 0.3833333,-0.2363636 h 4.3444446 c 0.638889,0 1.15,0.3545454 1.277778,0.9454547 l 1.15,5.2 c 0,0.118182 0,0.118182 0.127777,0.2363625 0,-0.1181805 0.127778,-0.1181805 0.127778,-0.1181805 L 2.33135,3.8826614 c -0.127778,-0.1181818 0,-0.2363636 0.127777,-0.2363636 h 2.683334 c 0,0.1181818 0,0.1181818 -0.127778,0.2363636 L 1.053572,12.509935 c -0.127778,0.236363 -0.127778,0.354545 -0.255556,0.472726 -0.127778,0.118183 -0.383333,0 -0.638889,0 h -1.916666 c -0.127778,0 -0.255556,0 -0.255556,-0.236363 L -4.0575393,5.4190255 c -0.2555556,-0.236364 -0.6388889,-0.59091 -1.15,-0.709091 C -5.974206,4.3553887 -7.3797616,4.119025 -7.6353171,4.119025 Z"
       fill="#142688"
       id="path3"
       style="stroke-width:1.22886" /></g></svg>
