<?xml version="1.0" encoding="UTF-8" standalone="no"?>
<svg
   role="img"
   viewBox="0 0 48 28"
   width="48"
   height="28"
   aria-labelledby="pi-american_express"
   version="1.1"
   id="svg3"
   sodipodi:docname="cardDiscover3.svg"
   inkscape:version="1.3.2 (091e20e, 2023-11-25, custom)"
   xml:space="preserve"
   xmlns:inkscape="http://www.inkscape.org/namespaces/inkscape"
   xmlns:sodipodi="http://sodipodi.sourceforge.net/DTD/sodipodi-0.dtd"
   xmlns="http://www.w3.org/2000/svg"
   xmlns:svg="http://www.w3.org/2000/svg"
   xmlns:rdf="http://www.w3.org/1999/02/22-rdf-syntax-ns#"
   xmlns:cc="http://creativecommons.org/ns#"
   xmlns:dc="http://purl.org/dc/elements/1.1/"><defs
     id="defs3"><linearGradient
       id="pi-paint0_linear"
       x1="21.657"
       y1="12.275"
       x2="19.632"
       y2="9.104"
       gradientUnits="userSpaceOnUse"><stop
         stop-color="#F89F20"
         id="stop8" /><stop
         offset=".25"
         stop-color="#F79A20"
         id="stop9" /><stop
         offset=".533"
         stop-color="#F68D20"
         id="stop10" /><stop
         offset=".62"
         stop-color="#F58720"
         id="stop11" /><stop
         offset=".723"
         stop-color="#F48120"
         id="stop12" /><stop
         offset="1"
         stop-color="#F37521"
         id="stop13" /></linearGradient><linearGradient
       id="pi-paint1_linear"
       x1="21.338"
       y1="12.232"
       x2="18.378"
       y2="6.446"
       gradientUnits="userSpaceOnUse"><stop
         stop-color="#F58720"
         id="stop14" /><stop
         offset=".359"
         stop-color="#E16F27"
         id="stop15" /><stop
         offset=".703"
         stop-color="#D4602C"
         id="stop16" /><stop
         offset=".982"
         stop-color="#D05B2E"
         id="stop17" /></linearGradient></defs><sodipodi:namedview
     id="namedview3"
     pagecolor="#505050"
     bordercolor="#eeeeee"
     borderopacity="1"
     inkscape:showpageshadow="0"
     inkscape:pageopacity="0"
     inkscape:pagecheckerboard="0"
     inkscape:deskcolor="#505050"
     inkscape:zoom="16"
     inkscape:cx="20.5625"
     inkscape:cy="17.65625"
     inkscape:window-width="1920"
     inkscape:window-height="1001"
     inkscape:window-x="-9"
     inkscape:window-y="-9"
     inkscape:window-maximized="1"
     inkscape:current-layer="svg3" /><title
     id="pi-american_express">American Express</title><metadata
     id="metadata3"><rdf:RDF><cc:Work
         rdf:about=""><dc:title>American Express</dc:title></cc:Work></rdf:RDF></metadata><g
     fill="none"
     id="g3"
     transform="scale(1.2631579,1.1666667)"><path
       fill="#000000"
       d="M 35,0 H 3 C 1.3,0 0,1.3 0,3 v 18 c 0,1.7 1.4,3 3,3 h 32 c 1.7,0 3,-1.3 3,-3 V 3 C 38,1.3 36.6,0 35,0 Z"
       opacity="0.07"
       id="path1"
       style="opacity:0.08" /></g><g
     id="g5"
     transform="translate(4.8475221,2.7293519)" /><g
     id="g6"
     transform="translate(13.874206,5.6264295)" /><g
     style="fill:none"
     id="g7"
     transform="matrix(1.2769619,0,0,1.1818182,-0.27696194,-0.18181818)"><path
       d="m 35,1 c 1.1,0 2,0.9 2,2 v 18 c 0,1.1 -0.9,2 -2,2 H 3 C 1.9,23 1,22.1 1,21 V 3 C 1,1.9 1.9,1 3,1 Z"
       fill="#ffffff"
       id="path2" /><path
       d="M 3.57,7.16 H 2 v 5.5 h 1.57 c 0.83,0 1.43,-0.2 1.96,-0.63 0.63,-0.52 1,-1.3 1,-2.11 C 6.52,8.29 5.31,7.16 3.57,7.16 Z M 4.83,11.3 C 4.49,11.6 4.06,11.74 3.36,11.74 H 3.07 V 8.1 h 0.29 c 0.69,0 1.11,0.12 1.47,0.44 0.37,0.33 0.59,0.84 0.59,1.37 0,0.53 -0.22,1.06 -0.59,1.39 z M 7.02,7.16 h 1.07 v 5.5 H 7.02 Z m 3.69,2.11 C 10.07,9.03 9.88,8.87 9.88,8.58 c 0,-0.35 0.34,-0.61 0.8,-0.61 0.32,0 0.59,0.13 0.86,0.45 L 12.1,7.69 c -0.46,-0.4 -1.01,-0.61 -1.62,-0.61 -0.97,0 -1.72,0.68 -1.72,1.58 0,0.76 0.35,1.15 1.35,1.51 0.42,0.15 0.63,0.25 0.74,0.31 0.21,0.14 0.32,0.34 0.32,0.57 0,0.45 -0.35,0.78 -0.83,0.78 -0.51,0 -0.92,-0.26 -1.17,-0.73 l -0.69,0.67 c 0.49,0.73 1.09,1.05 1.9,1.05 1.11,0 1.9,-0.74 1.9,-1.81 0.02,-0.89 -0.35,-1.29 -1.57,-1.74 z m 1.92,0.65 c 0,1.62 1.27,2.87 2.9,2.87 0.46,0 0.86,-0.09 1.34,-0.32 v -1.26 c -0.43,0.43 -0.81,0.6 -1.29,0.6 -1.08,0 -1.85,-0.78 -1.85,-1.9 0,-1.06 0.79,-1.89 1.8,-1.89 0.51,0 0.9,0.18 1.34,0.62 V 7.38 C 16.4,7.14 16.01,7.04 15.55,7.04 c -1.61,0 -2.92,1.28 -2.92,2.88 z m 12.76,0.94 -1.47,-3.7 h -1.17 l 2.33,5.64 h 0.58 l 2.37,-5.64 h -1.16 z m 3.13,1.8 h 3.04 v -0.93 h -1.97 v -1.48 h 1.9 V 9.32 h -1.9 V 8.1 h 1.97 V 7.16 h -3.04 z m 7.29,-3.87 c 0,-1.03 -0.71,-1.62 -1.95,-1.62 h -1.59 v 5.5 h 1.07 v -2.21 h 0.14 l 1.48,2.21 h 1.32 l -1.73,-2.32 c 0.81,-0.17 1.26,-0.72 1.26,-1.56 z M 33.65,9.7 H 33.34 V 8.03 h 0.33 c 0.67,0 1.03,0.28 1.03,0.82 0,0.55 -0.36,0.85 -1.05,0.85 z"
       fill="#231f20"
       id="path3" /><path
       d="m 20.16,12.86 a 2.931,2.931 0 1 0 0,-5.862 2.931,2.931 0 0 0 0,5.862 z"
       fill="url(#pi-paint0_linear)"
       id="path4"
       style="fill:url(#pi-paint0_linear)" /><path
       opacity="0.65"
       d="m 20.16,12.86 a 2.931,2.931 0 1 0 0,-5.862 2.931,2.931 0 0 0 0,5.862 z"
       fill="url(#pi-paint1_linear)"
       id="path5"
       style="fill:url(#pi-paint1_linear)" /><path
       d="m 36.57,7.506 c 0,-0.1 -0.07,-0.15 -0.18,-0.15 h -0.16 v 0.48 h 0.12 v -0.19 l 0.14,0.19 h 0.14 l -0.16,-0.2 c 0.06,-0.01 0.1,-0.06 0.1,-0.13 z m -0.2,0.07 h -0.02 v -0.13 h 0.02 c 0.06,0 0.09,0.02 0.09,0.06 0,0.05 -0.03,0.07 -0.09,0.07 z"
       fill="#231f20"
       id="path6" /><path
       d="m 36.41,7.176 c -0.23,0 -0.42,0.19 -0.42,0.42 0,0.23 0.19,0.42 0.42,0.42 0.23,0 0.42,-0.19 0.42,-0.42 0,-0.23 -0.19,-0.42 -0.42,-0.42 z m 0,0.77 c -0.18,0 -0.34,-0.15 -0.34,-0.35 0,-0.19 0.15,-0.35 0.34,-0.35 0.18,0 0.33,0.16 0.33,0.35 0,0.19 -0.15,0.35 -0.33,0.35 z"
       fill="#231f20"
       id="path7" /><path
       d="m 37,12.984 c 0,0 -9.91,6.889 -28.024,10.016 h 26.023 a 2,2 0 0 0 2,-1.984 L 37.023,17.996 37,12.985 Z"
       fill="#f48120"
       id="path8" /></g></svg>
